<?xml version="1.0" encoding="UTF-8" standalone="no"?>
<svg
   width="685.14423pt"
   height="447.73981pt"
   version="1.1"
   viewBox="0 0 685.14423 447.73981"
   id="svg987"
   sodipodi:docname="nori-logo.svg"
   inkscape:version="1.2.2 (b0a8486541, 2022-12-01)"
   xmlns:inkscape="http://www.inkscape.org/namespaces/inkscape"
   xmlns:sodipodi="http://sodipodi.sourceforge.net/DTD/sodipodi-0.dtd"
   xmlns="http://www.w3.org/2000/svg"
   xmlns:svg="http://www.w3.org/2000/svg"
   xmlns:rdf="http://www.w3.org/1999/02/22-rdf-syntax-ns#"
   xmlns:cc="http://creativecommons.org/ns#"
   xmlns:dc="http://purl.org/dc/elements/1.1/">
  <metadata
     id="metadata993">
    <rdf:RDF>
      <cc:Work
         rdf:about="">
        <dc:format>image/svg+xml</dc:format>
        <dc:type
           rdf:resource="http://purl.org/dc/dcmitype/StillImage" />
      </cc:Work>
    </rdf:RDF>
  </metadata>
  <defs
     id="defs991" />
  <sodipodi:namedview
     pagecolor="#ffffff"
     bordercolor="#666666"
     borderopacity="1"
     objecttolerance="10"
     gridtolerance="10"
     guidetolerance="10"
     inkscape:pageopacity="0"
     inkscape:pageshadow="2"
     inkscape:window-width="1920"
     inkscape:window-height="1021"
     id="namedview989"
     showgrid="false"
     inkscape:zoom="0.62870084"
     inkscape:cx="497.85205"
     inkscape:cy="397.6454"
     inkscape:window-x="0"
     inkscape:window-y="0"
     inkscape:window-maximized="1"
     inkscape:current-layer="layer2"
     inkscape:showpageshadow="2"
     inkscape:pagecheckerboard="0"
     inkscape:deskcolor="#d1d1d1"
     inkscape:document-units="pt" />
  <g
     inkscape:groupmode="layer"
     id="layer2"
     inkscape:label="iron"
     style="display:inline"
     sodipodi:insensitive="true"
     transform="translate(-33.427868,-152.1301)">
    <g
       id="g1175"
       transform="translate(-1.0513349,3.3377632)">
      <g
         id="g1015"
         transform="matrix(1.0883157,0.05151254,-0.05151254,1.0883157,-233.77567,-53.849758)"
         style="display:inline">
        <path
           d="m 388.29129,306.77063 c 0,13.586 11.055,24.637 24.637,24.637 13.582,0 24.633,-11.047 24.633,-24.637 0,-13.582 -11.047,-24.637 -24.633,-24.637 -13.582,0 -24.637,11.055 -24.637,24.637 z m 24.641,-15.164 c 8.3594,0 15.16,6.8008 15.16,15.164 0,8.3633 -6.8047,15.164 -15.16,15.164 -8.3633,0 -15.164,-6.8047 -15.164,-15.164 0,-8.3594 6.8008,-15.164 15.164,-15.164 z m 0,27.906 c 7.0234,0 12.738,-5.7148 12.738,-12.742 0,-2.6133 -2.1172,-4.7344 -4.7344,-4.7344 -2.6172,0 -4.7344,2.1211 -4.7344,4.7344 0,1.8047 -1.4688,3.2734 -3.2695,3.2734 -2.6172,0 -4.7344,2.1211 -4.7344,4.7344 0,2.6133 2.1172,4.7344 4.7344,4.7344 z"
           id="path995"
           style="fill:#32292f;fill-opacity:1" />
        <path
           d="m 426.86562,475.15572 c -4.3477,7.9922 -7.9844,15.48 -9.7891,22.039 -8.5273,31.047 -0.13754,41.02809 3.29218,45.59909 0.32812,0.4375 0.51953,0.92188 0.67578,1.4141 0.27399,1.13916 0.1721,1.91357 0.0154,2.66667 -0.26562,0.98438 -0.77734,1.9141 -1.6562,2.5703 -0.85156,0.64062 -1.8477,0.94531 -2.8359,0.94531 -1.4453,0 -2.8594,-0.65234 -3.793,-1.8945 -4.0781,-5.4375 -14.51908,-18.58309 -4.84288,-53.78209 2.7344,-9.9453 8.793,-21.066 15.492,-32.832 0.76172,-1.3359 1.5117,-2.6523 2.2734,-3.9844 10.457,-18.285 22.309,-39.012 26.477,-60.969 0.97266,-5.1289 1.4102,-9.7539 1.3828,-13.941 -0.35156,2.5391 -0.80469,5.1211 -1.4883,7.7773 -2.9609,11.488 -14.859,29.82 -27.926,48.828 -0.043,0.0625 -0.082,0.11719 -0.125,0.17969 -2.5391,3.6953 -5.1211,7.4102 -7.6914,11.113 -9.832,14.16 -19.125,27.535 -24.926,37.863 -12.133,21.594 -11.414,41.973 -10.902,47.766 7.957,6.6211 16.039,10.273 20.875,12.023 2.4609,0.89062 3.7266,3.6133 2.8398,6.0664 -0.69531,1.9258 -2.5156,3.1211 -4.4531,3.1211 -0.53516,0 -1.0859,-0.0937 -1.6133,-0.28516 -11.535,-4.1875 -39.297,-17.676 -48.004,-52.48 -5.2422,-20.965 6.2578,-43.645 17.387,-65.582 7.9141,-15.613 15.391,-30.355 16.137,-42.973 0.92188,-15.73 -6.8477,-31.293 -14.367,-46.344 -7.0039,-14.02 -14.246,-28.52 -14.246,-43.121 0,-16.727 13.406,-34.449 26.375,-51.594 10.48,-13.832 21.285,-28.121 22.469,-39.227 l -0.001,-0.003 c 0.11328,-1.0898 0.10547,-2.043 0.12891,-3.0312 -0.52734,2.9844 -1.457,6.0625 -2.9023,9.1719 -2.9609,6.375 -10.758,14.914 -20.633,25.727 -15.535,17 -34.863,38.164 -36.348,53.41 -1.875,19.297 6.1758,35.703 13.953,51.566 7.2617,14.805 14.113,28.789 13.363,44.672 -0.42969,9.0156 -5.3359,20.203 -11.535,32.309 -2.0156,3.9336 -4.1289,7.9023 -6.2812,11.934 -9.8828,18.508 -21.078,39.488 -20.324,54.383 1.332,26.266 17.85401,43.45196 33.098,52.539 4.60536,3.41852 29.88755,17.2131 32.9966,20.02778 1.2545,1.28853 1.78939,3.97253 0.99963,5.198 -0.60253,0.93496 -2.41332,3.16036 -5.70805,1.54524 -14.17476,-6.94865 -32.07718,-18.05221 -32.79598,-18.43893 -17.395,-9.4023 -36.527,-30.203 -38.059,-60.391 -0.78125,-15.477 7.9805,-33.859 17.598,-52.109 -0.64062,-0.63281 -1.25,-1.2695 -1.918,-1.8984 -30.938,-28.949 -43.324,-60.219 -3.3984,-120.35 -1.4805,-6.9102 -2.1641,-14.18 -1.4141,-21.906 1.043,-10.73 8.4727,-22.84 17.746,-34.656 1.3008,-6.3281 8.4922,-48.551 -22.293,-85.676 -1.6367,-1.9766 -1.8477,-4.7578 -0.50781,-6.9375 1.332,-2.168 3.8984,-3.2695 6.4219,-2.6914 11.75,2.6562 22.254,10.668 29.574,22.574 7.9844,12.98 11.301,29.039 9.8164,46.324 7.8203,-8.5703 14.891,-16.488 17.055,-21.148 3.0312,-6.5195 3.3281,-12.777 0.80859,-16.73 -1.1602,-1.8125 -2.793,-2.8984 -4.3672,-2.8984 -0.34766,0 -1.1953,0.0312 -1.4922,0.35938 -0.41797,0.44922 -0.57422,1.6523 -0.51953,2.3164 0.20312,2.582 -1.6992,4.8828 -4.2773,5.1211 -2.5234,0.26172 -4.8633,-1.5977 -5.1445,-4.1719 -0.0664,-0.58203 -0.51172,-5.7969 2.8906,-9.582 1.3398,-1.4922 3.9648,-3.918 7.8867,-4.1484 0.53516,-0.10547 11.258,-1.0508 18.754,6.0508 5.2148,4.9297 7.3164,12.512 6.2461,22.539 -1.457,13.719 -12.555,28.395 -24.309,43.93 -12.023,15.895 -24.461,32.332 -24.461,45.875 0,12.371 6.4297,25.25 13.246,38.887 8.0742,16.164 16.422,32.875 15.348,51.133 -0.84766,14.441 -8.6133,29.875 -16.895,46.207 7.3164,11.879 11.266,22.547 13.371,30.301 5.4336,-8.5 12.043,-18.039 18.949,-27.984 2.2109,-3.1875 4.4688,-6.4414 6.7188,-9.7031 l 8.32147,-12.27738 -10e-6,2e-4 c 0.59375,-0.89062 1.1836,-1.7773 1.7617,-2.6602 l 8.91324,-14.19552 c 4.2656,-7.2539 7.4336,-13.617 8.6289,-18.246 1.0312,-4.0156 1.7227,-8.1406 1.832,-12.293 0.15234,-5.9141 -0.89062,-16.785 -8.0977,-18.406 -0.98828,-0.22266 -2.0508,-0.36328 -3.0078,-0.0234 -0.73438,0.26172 -1.3633,0.85547 -1.5781,1.6133 -0.11328,0.39844 -0.24219,1.9922 0.16406,2.2227 1.8281,1.0117 2.8242,3.1602 2.293,5.2852 -0.64063,2.5391 -3.2266,4.0859 -5.7461,3.4492 -4.2461,-1.0625 -6.375,-6.0586 -6.2656,-10.441 0.1875,-7.7227 7.1406,-12.48 14.555,-11.859 8.4258,0.70703 13.988,5.2344 18.227,10.328 7.4961,9.0039 9.582,22.605 6.2031,40.422 -3.3359,17.578 -11.039,34.012 -18.38077,47.3469 -7.34177,13.3349 -8.2715,14.9716 -9.1816,16.5654 -0.33594,0.58594 -0.66406,1.1641 -0.99609,1.7461 m -50.49624,21.14932 c -0.47656,-3.8086 -2.6367,-16.496 -11.246,-32.242 -1.3164,2.6797 -2.5938,5.3594 -3.8086,8.0352 6.6211,10.016 11.129,19.34 13.996,26.23 0.34375,-0.67188 0.69141,-1.3477 1.0586,-2.0234 z m -11.531,41.082 c 0.32812,-6.9648 1.5781,-16.172 5.0703,-26.395 -1.207,-3.7773 -5.1445,-15 -13.02,-28.168 -3.9453,10.793 -5.9492,21.227 -3.5977,30.633 2.4492,9.8047 6.6484,17.645 11.547,23.93 z m -24.883,-90.688 0.0508,0.0508 c 1.2227,-2.2891 2.4141,-4.5469 3.582,-6.7773 -0.23828,-0.17578 -0.47266,-0.35547 -0.67578,-0.50391 -2.0273,-1.5078 -3.3008,-2.4688 -4.0742,-3.2734 -29.633,-30.055 -10.254,-74.602 -3.8984,-87.078 -0.51953,-1.3203 -0.98047,-2.6797 -1.457,-4.0312 -30.98,50.18 -20.523,76.363 6.4727,101.61 z m 3.5703,-78.75 c -1.1602,-2.3672 -2.3359,-4.7969 -3.5039,-7.2617 -6.7305,16.027 -15.617,47.371 5.6055,68.906 0.44141,0.42578 1.3555,1.1016 2.3242,1.8203 4.4453,-9.0977 7.6914,-17.246 7.9805,-23.414 0.64062,-13.449 -5.6953,-26.375 -12.406,-40.051 z m 13.984,-104.56 c 0.0742,-0.0859 0.14844,-0.17188 0.22266,-0.25391 4.9023,-20.488 2.7383,-39.73 -6.2031,-54.27 -3.3867,-5.5078 -7.5508,-9.9766 -12.199,-13.199 16.723,25.629 18.941,51.535 18.18,67.723 z"
           id="path997"
           sodipodi:nodetypes="ccscccscccccccsccccscssccccsccccccccccccccssccccccccccccccscccccccccsccccccccccccccccccccccccccccccccccccccccccccccccccccccccccc"
           style="fill:#87b38d;fill-opacity:1;stroke:none;stroke-width:1.00035;stroke-miterlimit:4;stroke-dasharray:none;stroke-opacity:1" />
        <path
           d="m 474.40041,461.91583 c 0,4.2695 -3.4609,7.7305 -7.7305,7.7305 -4.2695,0 -7.7305,-3.4609 -7.7305,-7.7305 0,-4.2656 3.4609,-7.7266 7.7305,-7.7266 4.2695,0 7.7305,3.4609 7.7305,7.7266"
           id="path1001"
           style="fill:#32292f;fill-opacity:1" />
        <path
           d="m 522.75738,359.02699 c -9.457,0 -17.148,7.6914 -17.148,17.148 0,9.4566 7.6914,17.148 17.148,17.148 9.457,0 17.148,-7.6914 17.148,-17.148 0,-9.4566 -7.6914,-17.148 -17.148,-17.148 z m 0,24.824 c -4.2344,0 -7.6758,-3.4492 -7.6758,-7.6758 0,-4.2305 3.4492,-7.6758 7.6758,-7.6758 4.2305,0 7.6758,3.4492 7.6758,7.6758 0,4.2305 -3.4453,7.6758 -7.6758,7.6758 z"
           id="path1003"
           style="fill:#32292f;fill-opacity:1" />
        <path
           d="m 306.68456,255.69492 c 6.1172,0 11.098,-4.9766 11.098,-11.09 0,-6.1134 -4.9766,-11.09 -11.098,-11.09 -6.1133,0 -11.09,4.9766 -11.09,11.09 0,6.1134 4.9766,11.09 11.09,11.09 z m 0,-12.711 c 0.89453,0 1.625,0.72266 1.625,1.6211 0,0.89453 -0.72266,1.6211 -1.625,1.6211 -0.89062,0 -1.6211,-0.72266 -1.6211,-1.6211 0,-0.89844 0.72656,-1.6211 1.6211,-1.6211 z"
           id="path1005"
           style="fill:#32292f;fill-opacity:1" />
        <path
           d="m 448.23878,205.66247 c 6.1172,0 11.098,-4.9766 11.098,-11.09 0,-6.1133 -4.9766,-11.09 -11.098,-11.09 -6.1133,0 -11.09,4.9766 -11.09,11.09 0,6.1133 4.9766,11.09 11.09,11.09 z m 0,-12.711 c 0.89453,0 1.625,0.72266 1.625,1.6211 0,0.89453 -0.72266,1.6211 -1.625,1.6211 -0.89063,0 -1.6211,-0.72266 -1.6211,-1.6211 0,-0.89453 0.72656,-1.6211 1.6211,-1.6211 z"
           id="path1007"
           style="fill:#32292f;fill-opacity:1" />
        <path
           d="m 501.89215,293.38272 c 6.1172,0 11.098,-4.9766 11.098,-11.09 0,-6.1133 -4.9766,-11.09 -11.098,-11.09 -6.1133,0 -11.09,4.9766 -11.09,11.09 0,6.1094 4.9766,11.09 11.09,11.09 z m 0,-12.711 c 0.89453,0 1.625,0.72266 1.625,1.6211 0,0.89453 -0.72266,1.6211 -1.625,1.6211 -0.89062,0 -1.6211,-0.72266 -1.6211,-1.6211 0,-0.89844 0.72656,-1.6211 1.6211,-1.6211 z"
           id="path1009"
           style="fill:#32292f;fill-opacity:1" />
        <path
           d="m 319.25506,450.39932 c 0,-6.1133 -4.9766,-11.09 -11.098,-11.09 -6.1133,0 -11.09,4.9766 -11.09,11.09 0,6.1172 4.9766,11.098 11.09,11.098 6.1172,-0.004 11.098,-4.9805 11.098,-11.098 z m -11.098,1.625 c -0.89063,0 -1.6211,-0.72266 -1.6211,-1.625 0,-0.89062 0.72266,-1.6211 1.6211,-1.6211 0.89453,0 1.625,0.72266 1.625,1.6211 0,0.89453 -0.73047,1.625 -1.625,1.625 z"
           id="path1011"
           style="fill:#32292f;fill-opacity:1" />
        <path
           d="m 280.64336,306.04316 c -10.348,0 -18.762,8.4141 -18.762,18.762 0,10.3479 8.4141,18.762 18.762,18.762 10.3479,0 18.762,-8.4141 18.762,-18.762 0.004,-10.348 -8.418,-18.762 -18.762,-18.762 z m 0,28.051 c -5.125,0 -9.293,-4.168 -9.293,-9.293 0,-5.125 4.168,-9.293 9.293,-9.293 5.125,0 9.293,4.168 9.293,9.293 0,5.125 -4.168,9.293 -9.293,9.293 z"
           id="path1013"
           style="fill:#32292f;fill-opacity:1" />
      </g>
      <g
         id="g985"
         transform="matrix(-1.2631571,-0.28071842,0.28071842,-1.2631571,823.90471,977.18695)"
         style="fill:#32292f;fill-opacity:1">
        <path
           d="m 548.47,181.71 c -1.4688,-1.4648 -3.6992,-1.8047 -5.5273,-0.85547 l -19.328,9.9961 c -0.42969,0.22266 -0.82812,0.51172 -1.168,0.85547 l -24.695,24.691 c -4.8359,-1.6055 -10.375,-0.54297 -14.223,3.2969 l -87.211,87.215 -11.031,-11.031 c -4.707,-4.6992 -12.906,-4.6992 -17.598,0 -2.3555,2.3477 -3.6523,5.4805 -3.6523,8.8047 0,3.3242 1.2969,6.4492 3.6523,8.8047 l 1.5977,1.5977 -26.625,26.625 c -3.1914,3.1914 -3.3672,9.0078 -2.4102,13.953 l -117.15,117.13 c -2.832,2.8359 -4.3945,6.6094 -4.3945,10.621 0,2.2031 0.50781,4.3086 1.3984,6.2461 l -11.234,11.23 c -1.8516,1.8477 -1.8516,4.8438 0,6.6953 l 3.4336,3.4375 c -3.8594,3.8516 -9.0117,10.66 -9.9883,20.242 -1.2734,12.504 4.8672,25.629 18.262,39.023 0.92188,0.92188 2.1367,1.3867 3.3477,1.3867 1.2109,0 2.4258,-0.46484 3.3477,-1.3867 1.8516,-1.8516 1.8516,-4.8438 0,-6.6953 -11.238,-11.238 -16.473,-21.758 -15.547,-31.262 0.66406,-6.8633 4.5117,-11.84 7.2852,-14.605 l 3.9609,3.9648 c 0.89062,0.89062 2.0938,1.3867 3.3516,1.3867 1.2539,0 2.4609,-0.49609 3.3516,-1.3867 l 11.352,-11.355 c 1.793,0.74219 3.7422,1.1328 5.7461,1.1328 4.0117,0 7.7852,-1.5625 10.617,-4.3984 l 117.14,-117.14 c 1.7305,0.32812 3.4805,0.50781 5.1133,0.50781 3.9102,0 6.8828,-0.98438 8.832,-2.9258 l 26.609,-26.625 1.9883,1.9844 c 4.6992,4.7031 12.891,4.707 17.609,0 4.8438,-4.8555 4.8438,-12.754 -0.004,-17.602 l -11.402,-11.402 87.211,-87.219 c 2.6289,-2.625 4.0742,-6.1133 4.0742,-9.8164 0,-1.5312 -0.30469,-3.0039 -0.77734,-4.4141 l 24.691,-24.691 c 0.34766,-0.34766 0.63281,-0.73828 0.86328,-1.1758 l 9.9922,-19.328 c 0.9375,-1.8281 0.59375,-4.0625 -0.86719,-5.5156 z m -52.027,44.652 7.3594,7.3555 c 0.82812,0.83984 1.2891,1.9414 1.2891,3.1133 0,1.1797 -0.46484,2.2891 -1.2969,3.125 l -0.66797,0.66797 -13.562,-13.562 0.66797,-0.66797 c 1.707,-1.7148 4.4883,-1.7227 6.2109,-0.0312 z m -270.13,285.29 -7.3984,-7.4023 7.1953,-7.1875 7.4023,7.3945 z m 201.68,-155.46 c -1.1172,1.1172 -3.0781,1.1211 -4.2109,0 l -5.3359,-5.3359 c -1.7773,-1.7773 -4.9219,-1.7773 -6.6953,0 l -29.746,29.797 c -0.17188,0.0898 -0.91797,0.32422 -2.3516,0.32422 -1.6133,0 -3.5195,-0.29688 -5.2227,-0.80469 -1.668,-0.49609 -3.4727,-0.0469 -4.707,1.1875 l -119.04,119.02 c -2.0938,2.0898 -5.75,2.0898 -7.8477,0 l -13.039,-13.039 c -1.0469,-1.0469 -1.625,-2.4375 -1.6211,-3.9219 0,-1.4805 0.57812,-2.875 1.625,-3.9258 l 119.02,-119.02 c 1.2305,-1.2305 1.6875,-3.0352 1.1875,-4.7031 -1.0859,-3.6406 -0.89453,-6.8242 -0.65234,-7.375 l 29.977,-29.969 c 0.89062,-0.89063 1.3867,-2.0938 1.3867,-3.3477 -0.004,-1.2539 -0.49609,-2.4609 -1.3906,-3.3477 l -4.9375,-4.9453 c -0.5625,-0.5625 -0.875,-1.3125 -0.875,-2.1094 0,-0.78906 0.30859,-1.5391 0.875,-2.1016 0.5625,-0.5625 1.3086,-0.87109 2.1016,-0.87109 0.79687,0 1.543,0.30859 2.1094,0.87109 l 49.395,49.398 c 1.1523,1.1602 1.1523,3.0508 -0.008,4.2109 z m -24.98,-42.582 79.852,-79.848 13.562,13.562 -79.844,79.855 z m 128.25,-112.05 -23.105,23.109 -2.6367,-2.6328 23.109,-23.105 5.4492,-2.8242 z"
           id="path969"
           style="fill:#32292f;fill-opacity:1" />
        <path
           d="m 424.61,310.05 c -1.8438,-1.6562 -5.2266,-1.5352 -6.9297,0.26953 -1.6875,1.7891 -1.7227,4.8867 -0.0859,6.7188 0.11328,0.12891 0.24219,0.25391 0.37109,0.375 0.87109,0.77734 2.1445,1.2656 3.3047,1.2656 1.2578,0 2.6172,-0.56641 3.5039,-1.4531 1.7695,-1.7773 1.8672,-4.9219 0.19922,-6.7969 -0.11328,-0.13672 -0.23438,-0.26172 -0.36328,-0.37891 z"
           id="path971"
           style="fill:#32292f;fill-opacity:1" />
        <path
           d="m 433.37,294.63 c -0.88281,0.92969 -1.3438,2.3242 -1.293,3.5977 0.0508,1.2773 0.61719,2.6328 1.5625,3.4844 0.87109,0.78516 2.1484,1.2773 3.3203,1.2773 1.3008,0 2.707,-0.60156 3.6094,-1.5469 1.7891,-1.8984 1.7109,-5.1914 -0.17969,-6.9844 -1.8242,-1.7305 -5.2969,-1.6484 -7.0195,0.17188 z"
           id="path973"
           style="fill:#32292f;fill-opacity:1" />
        <path
           d="m 449.05,278.96 c -1.7578,1.8672 -1.7148,5.1016 0.0977,6.9102 0.89062,0.89062 2.2383,1.4453 3.4961,1.4453 1.2539,0 2.6172,-0.5625 3.5039,-1.4492 0.88672,-0.88672 1.3906,-2.2461 1.3906,-3.5 -0.004,-1.2578 -0.49609,-2.6133 -1.3867,-3.5039 -1.8125,-1.8125 -5.3438,-1.7656 -7.1016,0.0977 z"
           id="path975"
           style="fill:#32292f;fill-opacity:1" />
        <path
           d="m 471.75,263.09 c -1.7578,-1.668 -5.0703,-1.6758 -6.8281,-0.004 -0.92188,0.88281 -1.457,2.2539 -1.4766,3.5312 -0.0156,1.2773 0.48828,2.668 1.3867,3.5664 0.89062,0.89062 2.2383,1.4453 3.4922,1.4453 1.2578,0 2.625,-0.56641 3.5078,-1.4531 0.89844,-0.89844 1.4062,-2.2812 1.3867,-3.5547 -0.0156,-1.2852 -0.54297,-2.6562 -1.4688,-3.5312 z"
           id="path977"
           style="fill:#32292f;fill-opacity:1" />
        <path
           d="m 420.64,297.71 c -1.8516,1.8516 -1.8516,5.1523 0,7.0039 0.89062,0.89062 2.25,1.4531 3.5,1.4531 1.2188,0 2.5352,-0.53125 3.4141,-1.3633 0.96094,-0.91016 1.4961,-2.3359 1.4805,-3.6602 -0.0195,-1.3203 -0.59375,-2.7344 -1.5781,-3.6133 -1.8086,-1.6172 -5.1055,-1.5312 -6.8164,0.17969 z"
           id="path979"
           style="fill:#32292f;fill-opacity:1" />
        <path
           d="m 436.32,282.02 c -0.90625,0.90625 -1.4688,2.293 -1.4531,3.5703 0.0195,1.1836 0.54297,2.4805 1.3594,3.3438 0.89453,0.94531 2.2891,1.5469 3.5938,1.5469 1.2109,0 2.5234,-0.53125 3.4062,-1.3633 0.92969,-0.88281 1.5312,-2.25 1.5469,-3.5273 0.0157,-1.2773 -0.55078,-2.668 -1.4531,-3.5664 -1.7734,-1.7734 -5.2266,-1.7734 -7,-0.004 z"
           id="path981"
           style="fill:#32292f;fill-opacity:1" />
        <path
           d="m 452.1,266.25 c -0.92969,0.88281 -1.5234,2.2461 -1.543,3.5234 -0.0195,1.2773 0.54297,2.668 1.4531,3.5703 0.89062,0.89062 2.2461,1.4492 3.5,1.4492 1.2969,0 2.6992,-0.59766 3.5938,-1.5391 0.88281,-0.92969 1.4102,-2.3359 1.3594,-3.6094 -0.0469,-1.1406 -0.57422,-2.3711 -1.3555,-3.207 -1.7344,-1.832 -5.1836,-1.9219 -7.0078,-0.1875 z"
           id="path983"
           style="fill:#32292f;fill-opacity:1" />
      </g>
    </g>
  </g>
</svg>
